<svg width="1400" height="1000" viewBox="0 0 1400 1000" fill="none" xmlns="http://www.w3.org/2000/svg">
  <rect width="1400" height="1000" fill="#dfe6ec"/>
  <rect y="675" width="1400" height="325" fill="#5c6770"/>
  <path d="M0 756C203 697 390 673 592 692C776 708 926 770 1108 770C1215 770 1313 747 1400 711V1000H0V756Z" fill="#7b858d"/>
  <path d="M300 1000L744 426H870L470 1000H300Z" fill="#f2c300"/>
  <path d="M812 1000L1120 560H1236L972 1000H812Z" fill="#ffffff"/>
  <path d="M1088 1000L1270 735H1342L1185 1000H1088Z" fill="#ef8121"/>
  <rect width="1400" height="1000" fill="url(#paint0_linear_22_17)" fill-opacity="0.32"/>
  <defs>
    <linearGradient id="paint0_linear_22_17" x1="0" y1="0" x2="1400" y2="1000" gradientUnits="userSpaceOnUse">
      <stop stop-color="#0f1c28"/>
      <stop offset="0.65" stop-color="#0f1c28" stop-opacity="0.18"/>
      <stop offset="1" stop-color="#0f1c28" stop-opacity="0"/>
    </linearGradient>
  </defs>
</svg>
